<svg version="1.1" id="Layer_1" xmlns="http://www.w3.org/2000/svg" xmlns:xlink="http://www.w3.org/1999/xlink" x="0px" y="0px" width="100%" viewBox="0 0 500 500" enable-background="new 0 0 0 0" xml:space="preserve">
	<path fill="#E85182" opacity="1.000000" stroke="none" d="
M501.000000,224.000000 
	C501.000000,241.687561 501.000000,259.375122 500.678833,277.181274 
	C499.900482,278.316467 499.189453,279.294495 499.028473,280.355957 
	C498.158325,286.094421 497.703369,291.907623 496.599396,297.596924 
	C487.653107,343.700470 467.710663,384.483398 435.890076,419.016144 
	C394.096527,464.371918 342.463257,491.229584 281.104828,499.045807 
	C280.004761,499.185944 279.032104,500.326324 278.000000,501.000000 
	C260.312439,501.000000 242.624878,501.000000 224.779419,500.666992 
	C217.979568,499.122742 211.322327,497.989471 204.698196,496.687775 
	C160.073090,487.918549 120.438316,468.797607 86.221512,438.823822 
	C59.346069,415.281097 38.333946,387.260101 23.549904,354.639191 
	C12.900949,331.142395 5.888228,306.653107 2.885002,281.014252 
	C2.760402,279.950531 1.650734,279.002136 0.999996,278.000000 
	C1.000000,260.645782 1.000000,243.291550 1.354356,225.743362 
	C2.109962,224.137238 2.713746,222.748856 2.882922,221.309402 
	C7.426296,182.652115 20.239527,146.949432 41.680805,114.491882 
	C73.076874,66.964897 115.790588,33.802387 169.490601,14.729941 
	C186.033508,8.854457 203.021286,5.131125 220.403946,2.966316 
	C221.664703,2.809304 222.804153,1.678209 224.000000,1.000000 
	C241.687561,1.000000 259.375122,1.000000 277.214966,1.328948 
	C278.912354,2.120610 280.429138,2.826514 282.006744,3.010339 
	C317.907867,7.193576 351.384888,18.862171 381.736176,38.145420 
	C448.934906,80.839195 488.471222,141.722107 499.050751,220.985397 
	C499.193909,222.057892 500.328278,222.998077 501.000000,224.000000 
M254.219955,183.762878 
	C253.269089,186.526199 252.318237,189.289520 251.367371,192.052826 
	C250.822922,191.963730 250.278473,191.874634 249.734009,191.785522 
	C249.385666,190.413589 249.040192,189.040924 248.688522,187.669846 
	C237.674774,144.731491 193.038330,121.294632 152.970886,143.128510 
	C126.088760,157.777344 113.325340,182.351501 112.161812,212.589539 
	C111.206062,237.428024 119.981934,259.675903 133.031723,280.318115 
	C158.631958,320.812653 194.965561,349.006317 237.069092,370.551422 
	C246.598846,375.427979 255.692215,375.330505 265.169891,370.337280 
	C290.654938,356.910767 314.480774,341.180206 335.242126,321.067566 
	C356.318939,300.649353 373.817383,277.697662 383.465729,249.672867 
	C393.811096,219.623489 392.462769,190.705490 372.973846,164.169022 
	C360.221649,146.805374 343.245453,136.358246 321.664276,135.226517 
	C290.344086,133.584106 264.794769,152.214813 254.219955,183.762878 
z" />
	<path fill="#00000000" opacity="1.000000" stroke="none" d="
M223.531342,1.000000 
	C222.804153,1.678209 221.664703,2.809304 220.403946,2.966316 
	C203.021286,5.131125 186.033508,8.854457 169.490601,14.729941 
	C115.790588,33.802387 73.076874,66.964897 41.680805,114.491882 
	C20.239527,146.949432 7.426296,182.652115 2.882922,221.309402 
	C2.713746,222.748856 2.109962,224.137238 1.354356,225.274704 
	C1.000000,150.406448 1.000000,75.812912 1.000000,1.000000 
	C75.020752,1.000000 149.041718,1.000000 223.531342,1.000000 
z" />
	<path fill="#00000000" opacity="1.000000" stroke="none" d="
M0.999996,278.468658 
	C1.650734,279.002136 2.760402,279.950531 2.885002,281.014252 
	C5.888228,306.653107 12.900949,331.142395 23.549904,354.639191 
	C38.333946,387.260101 59.346069,415.281097 86.221512,438.823822 
	C120.438316,468.797607 160.073090,487.918549 204.698196,496.687775 
	C211.322327,497.989471 217.979568,499.122742 224.310760,500.666992 
	C149.739639,501.000000 75.479271,501.000000 1.000000,501.000000 
	C1.000000,426.979248 1.000000,352.958282 0.999996,278.468658 
z" />
	<path fill="#00000000" opacity="1.000000" stroke="none" d="
M501.000000,223.531342 
	C500.328278,222.998077 499.193909,222.057892 499.050751,220.985397 
	C488.471222,141.722107 448.934906,80.839195 381.736176,38.145420 
	C351.384888,18.862171 317.907867,7.193576 282.006744,3.010339 
	C280.429138,2.826514 278.912354,2.120610 277.683624,1.328948 
	C352.260376,1.000000 426.520721,1.000000 501.000000,1.000000 
	C501.000000,75.020752 501.000000,149.041718 501.000000,223.531342 
z" />
	<path fill="#00000000" opacity="1.000000" stroke="none" d="
M278.468658,501.000000 
	C279.032104,500.326324 280.004761,499.185944 281.104828,499.045807 
	C342.463257,491.229584 394.096527,464.371918 435.890076,419.016144 
	C467.710663,384.483398 487.653107,343.700470 496.599396,297.596924 
	C497.703369,291.907623 498.158325,286.094421 499.028473,280.355957 
	C499.189453,279.294495 499.900482,278.316467 500.678833,277.649963 
	C501.000000,352.260376 501.000000,426.520721 501.000000,501.000000 
	C426.979248,501.000000 352.958282,501.000000 278.468658,501.000000 
z" />
	<path fill="#FFFEFF" opacity="1.000000" stroke="none" d="
M254.367767,183.399353 
	C264.794769,152.214813 290.344086,133.584106 321.664276,135.226517 
	C343.245453,136.358246 360.221649,146.805374 372.973846,164.169022 
	C392.462769,190.705490 393.811096,219.623489 383.465729,249.672867 
	C373.817383,277.697662 356.318939,300.649353 335.242126,321.067566 
	C314.480774,341.180206 290.654938,356.910767 265.169891,370.337280 
	C255.692215,375.330505 246.598846,375.427979 237.069092,370.551422 
	C194.965561,349.006317 158.631958,320.812653 133.031723,280.318115 
	C119.981934,259.675903 111.206062,237.428024 112.161812,212.589539 
	C113.325340,182.351501 126.088760,157.777344 152.970886,143.128510 
	C193.038330,121.294632 237.674774,144.731491 248.688522,187.669846 
	C249.040192,189.040924 249.385666,190.413589 249.734009,191.785522 
	C250.278473,191.874634 250.822922,191.963730 251.367371,192.052826 
	C252.318237,189.289520 253.269089,186.526199 254.367767,183.399353 
z" />
</svg>
