<svg version="1.1" id="Layer_1" xmlns="http://www.w3.org/2000/svg" xmlns:xlink="http://www.w3.org/1999/xlink" x="0px" y="0px"
	 width="100%" viewBox="0 0 500 500" enable-background="new 0 0 500 500" xml:space="preserve">
<path fill="#0000000" opacity="1.000000" stroke="none"  style="fill: transparent"
	d="
M298.000000,501.000000 
	C198.666687,501.000000 99.833382,501.000000 1.000053,501.000000 
	C1.000035,334.333405 1.000035,167.666794 1.000018,1.000143 
	C167.666565,1.000095 334.333130,1.000095 500.999756,1.000047 
	C500.999847,167.666519 500.999847,334.333038 500.999939,500.999786 
	C433.500000,501.000000 366.000000,501.000000 298.000000,501.000000 
M256.232880,8.299586 
	C244.599472,8.889535 232.864532,8.698437 221.349075,10.195591 
	C143.859863,20.270168 82.787582,57.674809 41.998272,124.283150 
	C-5.196110,201.350861 -9.202865,282.486572 31.374996,363.285309 
	C71.095718,442.377319 137.151062,486.593872 225.091049,496.825378 
	C271.097046,502.178070 315.301636,494.111115 356.963989,473.666656 
	C403.575531,450.793427 439.747833,416.634644 464.592560,371.022156 
	C494.134460,316.786224 502.006348,259.106720 488.560272,198.959259 
	C476.744629,146.105194 449.753113,101.849197 408.455597,66.773277 
	C364.917603,29.794432 314.191620,10.761013 256.232880,8.299586 
z"/>
<path fill="#E65281" opacity="1.000000" stroke="none" 
	d="
M256.704102,8.322847 
	C314.191620,10.761013 364.917603,29.794432 408.455597,66.773277 
	C449.753113,101.849197 476.744629,146.105194 488.560272,198.959259 
	C502.006348,259.106720 494.134460,316.786224 464.592560,371.022156 
	C439.747833,416.634644 403.575531,450.793427 356.963989,473.666656 
	C315.301636,494.111115 271.097046,502.178070 225.091049,496.825378 
	C137.151062,486.593872 71.095718,442.377319 31.374996,363.285309 
	C-9.202865,282.486572 -5.196110,201.350861 41.998272,124.283150 
	C82.787582,57.674809 143.859863,20.270168 221.349075,10.195591 
	C232.864532,8.698437 244.599472,8.889535 256.704102,8.322847 
M352.157196,298.660248 
	C373.060791,276.150116 389.337708,250.752579 398.910217,221.470413 
	C401.352509,213.999512 402.694672,205.809113 402.671722,197.954758 
	C402.575104,164.845322 376.630280,135.402695 344.444122,130.991409 
	C309.524689,126.205513 277.301147,146.307343 267.494965,179.135147 
	C265.641876,185.338577 264.126709,191.519135 266.769989,198.159668 
	C269.658173,205.415558 271.524109,213.072037 274.158539,220.438416 
	C275.176147,223.283875 274.551636,224.992264 272.448792,226.920456 
	C266.677490,232.212372 261.155426,237.775742 255.395752,243.080780 
	C252.092773,246.123077 251.940781,248.852554 255.334610,251.855652 
	C258.952240,255.056778 262.577667,258.262665 265.981659,261.683411 
	C267.002380,262.709167 268.027771,264.591370 267.803802,265.861237 
	C265.603088,278.338867 263.138824,290.770081 260.749420,303.214447 
	C260.170959,303.182220 259.592499,303.150024 259.014038,303.117828 
	C259.014038,294.144379 258.870056,285.167633 259.076691,276.198944 
	C259.175323,271.918518 257.877380,268.571625 255.006638,265.389984 
	C248.110138,257.746643 241.488464,249.855377 234.447220,241.706894 
	C241.181000,236.105591 247.466095,230.696472 253.957748,225.547775 
	C257.658356,222.612701 257.839020,219.839172 254.892014,216.283203 
	C248.726196,208.843338 242.624832,201.344528 236.719376,193.698166 
	C235.162567,191.682404 233.754501,189.135147 233.400040,186.670609 
	C228.876236,155.216309 198.391602,128.531082 163.567429,129.510361 
	C118.919518,130.765854 85.612648,175.473572 99.100372,218.030548 
	C104.136795,233.921677 110.637238,249.270721 119.578438,263.480621 
	C150.504181,312.629578 194.298309,347.533386 244.076965,375.723053 
	C246.290573,376.976593 250.502701,376.769653 252.806091,375.487000 
	C289.568695,355.015472 323.147125,330.348633 352.157196,298.660248 
z"/>
<path fill="#FFFEFE" opacity="1.000000" stroke="none" 
	d="
M351.923645,298.926514 
	C323.147125,330.348633 289.568695,355.015472 252.806091,375.487000 
	C250.502701,376.769653 246.290573,376.976593 244.076965,375.723053 
	C194.298309,347.533386 150.504181,312.629578 119.578438,263.480621 
	C110.637238,249.270721 104.136795,233.921677 99.100372,218.030548 
	C85.612648,175.473572 118.919518,130.765854 163.567429,129.510361 
	C198.391602,128.531082 228.876236,155.216309 233.400040,186.670609 
	C233.754501,189.135147 235.162567,191.682404 236.719376,193.698166 
	C242.624832,201.344528 248.726196,208.843338 254.892014,216.283203 
	C257.839020,219.839172 257.658356,222.612701 253.957748,225.547775 
	C247.466095,230.696472 241.181000,236.105591 234.447220,241.706894 
	C241.488464,249.855377 248.110138,257.746643 255.006638,265.389984 
	C257.877380,268.571625 259.175323,271.918518 259.076691,276.198944 
	C258.870056,285.167633 259.014038,294.144379 259.014038,303.117828 
	C259.592499,303.150024 260.170959,303.182220 260.749420,303.214447 
	C263.138824,290.770081 265.603088,278.338867 267.803802,265.861237 
	C268.027771,264.591370 267.002380,262.709167 265.981659,261.683411 
	C262.577667,258.262665 258.952240,255.056778 255.334610,251.855652 
	C251.940781,248.852554 252.092773,246.123077 255.395752,243.080780 
	C261.155426,237.775742 266.677490,232.212372 272.448792,226.920456 
	C274.551636,224.992264 275.176147,223.283875 274.158539,220.438416 
	C271.524109,213.072037 269.658173,205.415558 266.769989,198.159668 
	C264.126709,191.519135 265.641876,185.338577 267.494965,179.135147 
	C277.301147,146.307343 309.524689,126.205513 344.444122,130.991409 
	C376.630280,135.402695 402.575104,164.845322 402.671722,197.954758 
	C402.694672,205.809113 401.352509,213.999512 398.910217,221.470413 
	C389.337708,250.752579 373.060791,276.150116 351.923645,298.926514 
z"/>
</svg>